<svg width="100" height="107" viewBox="0 0 100 107" fill="none" xmlns="http://www.w3.org/2000/svg">
    <path fill-rule="evenodd" clip-rule="evenodd"
        d="M100 53.5814C100 50.1809 99.7041 46.8631 99.0925 43.4383L98.8543 42.1212H98.8224C96.0895 29.2451 88.9194 17.6099 79.0041 10.0362C78.3213 9.51291 77.3759 9.68302 76.8857 10.4104C76.3986 11. 1378 76.5534 12.1504 77.2348 12.6704C86.8617 20.0254 93.7374 31.4662 96.1061 44.0588L96.1684 44.3877C96.7056 47.49 96.965 50.5001 96.965 53.5814C96.965 54.4757 97.6433 55.2015 98.4825 55.2015C99.3217 55.2015 100 54.4757 100 53.5814ZM12. 2805 23.3773C19.2806 13.3638 29.4781 6.53851 40.9988 4.15866C43.9169 3.5479 46.9261 3.24009 49.9398 3.24009C57.1236 3.24009 64.0509 4.95896 70.5351 8.34648C71.2908 8.74015 72.1998 8.40966 72.5655 7.6045C72.9327 6.80096 72.6216 5.83055 71. 8689 5.43688C64.9674 1.82903 57.591 0 49.9398 0C46.7304 0 43.5254 0.32887 40.4192 0.978508C28.1579 3.51226 17.3018 10.7782 9.84798 21.4397C9.34569 22.1574 9.4853 23.1715 10.156 23.7061C10.4292 23.9232 10.7463 24.0285 11.062 24.0285C11. 5263 24.0285 11.9831 23.8033 12.2805 23.3773ZM3.07091 67.1088C3.8858 66.8998 4.38808 66.025 4.19384 65.155C4.16349 65.0206 4.13315 64.9072 4.10431 64.8019H4.10735L3.78868 62.8691C1.76132 51.9193 3.35619 40.378 8.21365 30.3694C8.59909 29. 5756 8.38664 28.5971 7.64308 28.1856C6.89799 27.7741 6.13925 28.0851 5.75381 28.879C0.606519 39.4822 -1.67122 51.707 1.36374 63.3211V63.3292C1.36374 64.5556 1.27876 65.006 1.44265 65.5147C1.47755 65.6248 1.20441 65.7431 1.24234 65.9132C1. 40927 66.6536 2.03143 67.1558 2.71734 67.1558C2.83418 67.1525 2.95254 67.1364 3.07091 67.1088ZM38.9745 104.666C51.1052 87.4064 54.8246 72.0143 51.4194 53.1975C51.26 52.3194 50.4603 51.7443 49.6409 51.9144C48.8184 52.0845 48.2812 52.9334 48.439 53.8131C51.7138 71.8766 48.266 86.0455 36.5481 102.721C36.0443 103.437 36.1808 104.453 36.8515 104.987C37.1247 105.206 37.4449 105.311 37.7605 105.311C38.2218 105.316 38.6771 105.092 38.9745 104.666ZM45.6165 105.94C57.4711 88.0495 60.9886 71.9074 57.377 51.9695C56.9916 49.8407 55.8519 48.0004 54.1706 46.7869C52.4937 45.5768 50.474 45.1377 48.4876 45.5509C46.4982 45.9623 44.7774 47.1758 43.6423 48.9708C42.5087 50.7642 42.096 52.9237 42.4814 55.0476C43.8335 62.5144 43.838 69.2602 42.4966 75.6708C42.3145 76.544 42.8289 77.4091 43.6468 77.6035C44.4693 77.7995 45.2766 77.2487 45.4587 76.3755C46.8927 69.5243 46.8942 62.3426 45.4617 54.4287C45.2311 53.1521 45.4784 51.8561 46.1583 50.7787C46.8381 49.7014 47.87 48.974 49.0658 48.7261C50.26 48.4799 51.4679 48.7423 52.4725 49.4665C53.4831 50.1939 54.166 51.2988 54.4012 52.5786C57.8398 71.5656 54.4725 86.9657 43.1415 104.064C42.6574 104.794 42.8198 105.804 43.5042 106.324C43.7713 106.525 44. 0763 106.622 44.3798 106.622C44.8517 106.622 45.3206 106.385 45.6165 105.94ZM32.8575 102.538C37.4115 96.3004 40.7044 90.5152 42.923 84.8467C43.2462 84.0205 42.8805 83.0711 42.1066 82.7261C41.3296 82.3777 40.4434 82.7682 40.1217 83.596C38. 0094 88.994 34.85 94.5378 30.4645 100.543C29.9485 101.25 30.0669 102.265 30.7285 102.815C31.0062 103.046 31.334 103.158 31.6602 103.158C32.1125 103.161 32.5586 102.947 32.8575 102.538ZM27.2429 99.6669C38.1262 85.1626 41.8304 73.414 40. 0246 59.1187C39.9123 58.2293 39.1429 57.6186 38.3174 57.7304C37.4874 57.8503 36.9047 58.6651 37.017 59.5529C38.7226 73.0463 35.3174 83.7273 24.8756 97.6435C24.3505 98.3433 24.4568 99.3639 25.1108 99.9196C25.39 100.159 25.7254 100.276 26. 0592 100.276C26.5023 100.274 26.9439 100.07 27.2429 99.6669ZM63.2527 66.4219C64.0919 66.4219 64.7595 65.7188 64.7474 64.8278C64.6822 60.2674 64.2102 55.5563 63.3331 50.735C62.0918 43.8854 56.4604 38.9151 49.9368 38.9151C49.0642 38.9151 48.1871 39.0059 47.3313 39.1825C43.7485 39.9244 40.6513 42.1115 38.6088 45.3403C37.6285 46.8923 36.9441 48.6063 36.5754 50.4353C36.3993 51.3101 36.9198 52.172 37.7393 52.3599C38.5618 52.543 39.366 51.9905 39.542 51.1173C39.8289 49.6933 40.363 48.3568 41.1248 47.1498C42.7121 44.6388 45.1218 42.9345 47.9094 42.3577C48.5756 42.22 49.2585 42.1439 49.9368 42.1439C55.0082 42.1439 59.3892 45.9996 60.3543 51.3263C61.1935 55.9629 61.6502 60.5055 61.7124 64.8764C61.7246 65.7626 62.3999 66.4235 63.2299 66.4235C63.236 66.4219 63.2451 66.4219 63.2527 66.4219ZM52.7669 106.186C59.3588 95.3495 63.1419 84.7187 64.3301 73.6862C64.4242 72.7968 63.8293 71.9933 62.9962 71.8928C62.1601 71.7924 61.4105 72.4291 61.3164 73. 3168C60.1813 83.839 56.5515 94.0129 50.2206 104.42C49.7638 105.172 49.9641 106.175 50.6667 106.662C50.9232 106.839 51.21 106.923 51.4922 106.923C51.9884 106.923 52.4786 106.664 52.7669 106.186ZM60.4833 105.211C70.1694 87.489 72.9706 69. 7867 69.2953 49.5005C68.2164 43.5533 64.7762 38.3789 59.8611 35.3073C59.1388 34.8537 58.2086 35.1129 57.7867 35.8857C57.3633 36.6584 57.6061 37.6499 58.3285 38.1019C62.4909 40.7037 65.4014 45.0827 66.3165 50.1161C69.8416 69.5859 67.1587 86.5737 57.8641 103.578C57.4438 104.352 57.6881 105.344 58.4089 105.792C58.6487 105.945 58.9127 106.014 59.1737 106.014C59.6927 106.014 60.201 105.731 60.4833 105.211ZM22.1305 96.1174C33.0305 81.7735 36.1232 71.1427 33.5434 56.896C32. 6952 52.2173 33.6026 47.4674 36.1004 43.5209C38.5982 39.5729 42.3828 36.9014 46.7607 35.9942C48.2569 35.6815 49.8093 35.6038 51.3131 35.7318C52.1402 35.803 52.8807 35.1388 52.9475 34.2478C53.0158 33.3568 52.3936 32.5743 51.5575 32.503C49. 7805 32.3491 47.9474 32.4463 46.181 32.8124C41.0079 33.8817 36.5344 37.0407 33.5844 41.7049C30.6344 46.3674 29.5616 51.9808 30.5631 57.5084C32.9471 70.6745 30.0229 80.5844 19.7738 94.8712C19.2457 94.7679 19.3444 95.7885 19.9954 96.349C20. 2761 96.592 20.6145 96.7135 20.9499 96.7135C21.393 96.7168 21.83 96.5127 22.1305 96.1174ZM68.749 102.601C71.0192 97.7504 72.8477 92.7493 74.1846 87.7353C74.4122 86.875 73.9464 85.9791 73.1406 85.7345C72.3333 85.4866 71.4941 85.9888 71. 2665 86.8491C69.9827 91.6703 68.2255 96.4803 66.0373 101.151C65.6624 101.951 65.9644 102.925 66.7141 103.325C66.9341 103.438 67.1647 103.493 67.3924 103.493C67.9478 103.497 68.4819 103.171 68.749 102.601ZM75.9935 79.1425C77.4897 69.3817 77.2484 59.2808 75.2529 48.2693C72.9084 35.3332 62.2633 25.9434 49.9429 25.9434C48.2934 25.9434 46.6408 26.1135 45.0323 26.4489C38.2658 27.8454 32.416 31.9765 28.5585 38.0792C24.6996 44.1787 23.2974 51.5191 24.607 58.7494C25.2686 62.401 25.4462 65.4661 25.1669 68.3984C25.082 69.2894 25.689 70.0832 26.5221 70.1756C27.3688 70.2485 28.1002 69.6183 28.1852 68.7272C28.4978 65.471 28.3066 62.1045 27.5873 58.1321C26.4295 51.7524 27.6678 45.2754 31.073 39.892C34.4767 34.5086 39. 6376 30.8635 45.6105 29.6307C47.0293 29.3342 48.4876 29.1851 49.9413 29.1851C60.8141 29.1851 70.2058 37.4701 72.2741 48.8865C74.1998 59.5157 74.435 69.2424 72.998 78.6209C72.8629 79.5038 73.4213 80.3365 74.2514 80.4791C74.3349 80.4953 74. 4138 80.5017 74.4972 80.5017C75.2271 80.4985 75.8721 79.9364 75.9935 79.1425ZM17.4976 91.9214C21.5159 86.6061 24.3096 81.8885 26.035 77.5047C26.3597 76.6784 25.997 75.7291 25.2231 75.3824C24.4477 75.0373 23.5615 75.4229 23.2367 76. 2459C21.6236 80.3462 18.9726 84.8078 15.1349 89.8867C14.6083 90.5833 14.7115 91.6039 15.3625 92.1645C15.6432 92.4042 15.9801 92.5225 16.314 92.5225C16.7586 92.5225 17.1987 92.3167 17.4976 91.9214ZM13.3488 87.0807C23.2489 73.7348 22.9909 66.9047 21.6267 59.3634C20.1623 51.2858 21.7299 43.0803 26.041 36.2599C27.5888 33.8136 29.4478 31.6201 31.5692 29.7424C32.2141 29.1706 32.3037 28.1499 31.768 27.4614C31.2323 26.7729 30.2763 26.6789 29.6314 27.2492C27.2884 29.3228 25.2337 31.7448 23.525 34.4471C18.7601 41.9835 17.0287 51.0509 18.6463 59.9757C19.9028 66.9144 20.0879 72.7757 10.9694 85.067C10.4489 85.7701 10.5597 86.7875 11.2183 87.3432C11.4975 87.5797 11.8283 87.6931 12.1591 87.6931C12.6068 87.6947 13.0499 87.4841 13.3488 87.0807ZM77.4684 97.7812C83.3988 81.8075 84.5869 65.6832 81.2105 47.0348C80.3456 42.2508 78.5641 37.8087 75.9191 33.8298C75.4335 33.1008 74.4881 32.9291 73.8022 33.4475C73.1193 33.9659 72.957 34.9768 73.4441 35.7074C75. 8372 39.3056 77.4487 43.3249 78.2302 47.6521C81.4928 65.6654 80.3547 81.2146 74.6474 96.5904C74.3394 97.4215 74.7203 98.3644 75.5003 98.6933C75.6839 98.771 75.8705 98.8067 76.0572 98.8067C76.6611 98.8067 77.2332 98.4195 77.4684 97. 7812ZM70.3712 29.5059C70.9053 28.8158 70.8128 27.7935 70.1633 27.2249C64.4697 22.2157 57.289 19.4568 49.9398 19.4568C47.9003 19.4568 45.8593 19.6657 43.876 20.0805C41.448 20.5827 39.0686 21.3879 36.806 22.4765C36.0427 22.8443 35.7013 23. 8033 36.0458 24.6182C36.3887 25.4331 37.2856 25.7976 38.0519 25.4299C40.1005 24.4449 42.2553 23.7159 44.4557 23.2606C46.2493 22.8864 48.0946 22.6969 49.9398 22.6969C56.5849 22.6969 63.0827 25.1933 68.2331 29.7246C68.5153 29.9741 68.8552 30.0956 69.1967 30.0956C69.6352 30.0956 70.0677 29.8947 70.3712 29.5059ZM86.6705 52.4166C87.499 52.2805 88.0681 51.4527 87.9391 50.5681C87.713 48.9918 87.4611 47.4058 87.1697 45.8036C83.722 26.7794 68.0661 12.9717 49.9398 12.9717C47.5134

12.9717 45.0839 13.2212 42.7242 13.7137C32.7756 15.7712 24.1715 21.8447 18.4976 30.8165C15.4718 35.6005 13.4717 40.89 12.5521 46.5358C12.408 47.4171 12.9619 48.2563 13.7874 48.4102C14.622 48.5641 15.3989 47.9728 15.5431 47.0915C16.3883 41.8977 18.229 37.0326 21.0121 32.6294C26.2322 24.3752 34.1474 18.7877 43.3024 16.8938C45.4754 16.4419 47.7076 16.2118 49.9398 16.2118C66.6154 16.2118 81.0194 28.9162 84.1909 46.4192C84.4731 47.9825 84.719 49.5281 84.939 51.0655C85.0528 51.8658 85.7008 52.4377 86.4368 52.4377C86.5142 52.4361 86.5916 52.4296 86.6705 52.4166ZM86.3806 89.8462C88.8253 80.0222 89.6402 70.0103 88.8784 59.2386C88.8147 58.346 88.0863 57.6818 87.2532 57.7449C86.4155 57.8114 85.7888 58.589 85. 8525 59.48C86.59 69.8856 85.804 79.5459 83.4488 89.0118C83.2334 89.8753 83.7174 90.7647 84.5263 90.9948C84.6568 91.0304 84.7903 91.0482 84.9178 91.0482C85.5885 91.0499 86.2016 90.5703 86.3806 89.8462ZM9.70989 81.5207C17.4733 70.5725 16. 5962 65.7253 15.6675 60.5897C15.3549 58.8725 15.1546 57.1034 15.0696 55.3246C15.0287 54.4287 14.3291 53.7418 13.4778 53.7888C12.6417 53.8341 11.9967 54.5956 12.0392 55.4882C12.1303 57.4161 12.3488 59.3407 12.6872 61.2054C13.5521 65.9877 14.2365 69.7657 7.2895 79.5621C6.78418 80.2749 6.91469 81.2923 7.5839 81.8302C7.85856 82.0521 8.18027 82.159 8.49894 82.159C8.95722 82.1639 9.41094 81.942 9.70989 81.5207ZM6.6294 75.0308C10.8875 68.3352 10.3412 65.317 9.70989 61.8242C7. 62942 50.3462 9.8586 38.6883 15.9847 28.9972C22.1123 19.3061 31.4053 12.7465 42.1521 10.5254C46.3995 9.63766 50.8473 9.47889 55.2525 10.0978C56.0887 10.2031 56.8474 9.58906 56.9536 8.70289C57.0629 7.81511 56.4802 7.00184 55.6471 6. 8852C50.9216 6.22098 46.1355 6.39108 41.574 7.34529C30.0335 9.73162 20.0515 16.7772 13.4702 27.186C6.89041 37.5932 4.49582 50.1145 6.73107 62.4415C7.29709 65.5681 7.67039 67.6305 4.12101 73.2115C3.64907 73.9519 3.83117 74.9612 4.52466 75. 4634C4.78566 75.6529 5.08157 75.7437 5.37596 75.7437C5.85852 75.742 6.33501 75.4942 6.6294 75.0308ZM93.2776 78.4718C93.229 78.4718 93.1774 78.4686 93.1213 78.4653C92.2882 78.3714 91.6827 77.5776 91.7646 76.6865C92.7146 66.7378 92.1819 56. 4359 90.147 45.1847C87.3366 29.6906 76.8645 16.9619 62.8172 11.964C62.0235 11.6805 61.5926 10.7636 61.8581 9.91469C62.1237 9.0674 62.9765 8.60569 63.7777 8.89082C78.86 14.2564 90.1091 27.9296 93.1258 44.5707C95.2215 56.1379 95.7647 66. 7508 94.7859 77.017C94.7101 77.8513 94.0484 78.4718 93.2776 78.4718Z"
        fill="#6EB4C0" />
</svg>