<svg width="20" height="20" viewBox="0 0 20 20" fill="none" xmlns="http://www.w3.org/2000/svg">
    <g clip-path="url(#clip®_0_1714)">
        <path
            d="M19.694 8.52167L10.5274 1.02167C10.3785 0.899959 10.1922 0.833466 9.99988 0.833466C9.8076 0.833466 9.62123 0.899959 9.47238 1.02167L0.305712 8.52167C0.138484 8.66277 0.0334566 8.86398 0.0133085 9.08185C-0.00683955 9.29972 0.059508 
9.51678 0.198025 9.68615C0.336543 9.85552 0.536116 9.96362 0.753653 9.9871C0.97119 10.0106 1.18924 9.94758 1.36071 9.81167L2.49988 8.88001V18.3333C2.49988 18.5544 2.58768 18.7663 2.74396 18.9226C2.90024 19.0789 3.1122 19.1667 3.33321 
19.1667H8.33321V14.1667H11.6665V19.1667H16.6665C16.8876 19.1667 17.0995 19.0789 17.2558 18.9226C17.4121 18.7663 17.4999 18.5544 17.4999 18.3333V8.88001L18.639 9.81167C18.7235 9.88294 18.8213 9.93669 18.9267 9.9698C19.0322 10.0029 19.1431 
10.0147 19.2532 10.0046C19.3632 9.99438 19.4701 9.96241 19.5677 9.91053C19.6653 9.85864 19.7516 9.78787 19.8215 9.70232C19.8915 9.61678 19.9437 9.51817 19.9752 9.41224C20.0067 9.30632 20.0168 9.19518 20.005 9.08531C19.9931 8.97544 
19.9595 8.86903 19.9061 8.77226C19.8527 8.6755 19.7807 8.59031 19.694 8.52167Z"
            fill="white" />
    </g>
    <defs>
        <clipPath id="clipe_0_1714">
            <rect width="20" height="20" fill="white" />
        </clipPath>
    </defs>
</svg>