<svg width="21" height="21" viewBox="0 0 21 21" fill="none" xmlns="http://www.w3.org/2000/svg">


    <path
        d="M15.6122 15.6122C14.141 16.7336 12.3495 17.3549 10.4999 17.3851C4.47537 17.3851 1.03278 10.4999 1.03278 10.4999C2.10333 8.50484 3.58816 6.76178 5.38766 5.38766M8.69255 3.82128C9.28496 3.68261 9.89149 
3.6133 10.4999 3.61473C16.5245 3.61473 19.9671 10.4999 19.9671 10.4999C19.4446 11.4773 18.8216 12.3974 18.1081 13.2454M12.3245 12.3245C12.0881 12.5782 11.8031 12.7816 11.4863 12.9227C11.1696 13.0639 10.8277 
13.1397 10.4811 13.1459C10.1344 13.152 9.79002 13.0882 9.46852 12.9584C9.14702 12.8285 8.85498 12.6352 8.6098 12.39C8.36462 12.1449 8.17134 11.8528 8.04148 11.5313C7.91162 11.2098 7.84785 10.8655 7.85397 
10.5188C7.86008 10.1721 7.93596 9.8302 8.07708 9.51348C8.2182 9.19676 8.42167 8.91172 8.67534 8.67534M1.03278 1.03278L19.9671 19.9671"
        stroke="#016B83" stroke-width="2" stroke-linecap="round" stroke-linejoin="round" />


</svg>