<svg width="387" height="264" viewBox="0 0 387 264" fill="none" xmlns="http://www.w3.org/2000/svg">
  <g filter="url(#filtere_d_0_183)">
    <path d="M342.783 26H44.2174C36.3653 26 38 32.2557 38 39.9726V216.827C38 223.744 36.3653 238 44.2174 238H342.783C350.635 230 357 223.744 357 216.827V39.9726C357 32.2557 358.635 26 342.783 26Z" fill="#016883"/> 
    <mask id="maske_0_183" maskUnits="userSpaceOnUse" x="30" y="26" width="327" height="204">
      <path d="M342.783 26H44.2174C36.3653 26 30 32.2557 30 39.9726V216.827C30 223.744 36.3653 230 44.2174 238H342.783C350.635 230 357 223.744 357 216.827V39.9726C357 32.2557 350.635 26 342.783 26Z" fill="#DAEBFF"/> 
    </mask>
    <g mask="url(#maske_0_183)"> 
      <path d="M75.8991 348.172C173.489 348.172 252.681 278.422 252.601 174.513C252.681 78.6032 173.489 0.853888 75.8991 0.853888C-21.6906 0.853088 -100.803 78.6032 -100.803 174.513C-100.803 270.422 -21.6906 348.172 75.8991 348.172" fill="#FFCCB9"/> 
      <path d="M348.878 153.749C401.599 153.749 444.338 111.746 444.338 59.9325C444.338 8.11928 401.599 -33.8837 348.878 -33.8837C296.157 -33.8837 253.418 8.11928 253.418 59.9325C253.418 111.746 296.157 153.749 348.878 153.749" fill="#FFCCB9"/> 
    </g>
  </g>
  <defs>
    <filter id="filtere_d_0_183" x="0" y="0" width="387" height="264" filterUnits="userSpaceOnUse" color-interpolation-filters="sRGB">
      <feFlood flood-opacity="0" result="BackgroundImageFix"/>
      <feColorMatrix in="SourceAlpha" type="matrix" values="0 0 0 0 0 0 0 0 0 0 0 0 0 0 0 0 0 0 0 127" result="hardAlpha"/>
      <feOffset dy="4"/>
      <feGaussianBlur stdDeviation="15"/>
      <feColorMatrix type="matrix" values="0 0 0 0 0.211765 0 0 0 0 0.168784 0 0 0 0 0.717647 0 0 0 0.07 0"/>
      <feBlend mode="normal" in2="BackgroundImageFix" result="effect1_dropShadow_0_183"/>
      <feBlend mode="normal" in="SourceGraphic" in2="effect1_dropShadow_0_183" result="shape"/>
    </filter>
  </defs>
</svg>
