<svg width="28" height="28" viewBox="0 0 28 28" fill="none" xmlns="http://www.w3.org/2000/svg">
    <g clip-path="url(#clip0_0_84)">
        <path
            d="M20.9998 7V8.16667H23.3332V7C23.3332 3.1395 20.1937 0 16.3332 OH15.1665V2.33333H16.3332C18.9068 2.33333 20.9998 4.42633 20.9998 77"
            fill="#FF4267" />
        <path
            d="M6.99984 21V19.8333H4.6665V21C4.6665 24.8605 7.806 28 11.6665 28H12.8332V25.6666H11.6665C9.09284 25.6666 6.99984 23.5736 6.99984 217"
            fill="#FF4267" />
        <path
            d="M10.5 H2.33333C1.04417 0 0 1.04417 0 2.33333V15.1667C0 16.4558 1.04417 17.5 2.33333 17.5H10.5C11.7892 17.5 12.8333 16.4558 12.8333 15.1667V2.33333C12.8333 1.04417 11.7892 0 10.5 OZM10.5 14H2.33333V3.5H10.5V14z"
            fill="#FF4267" />
        <path
            d="M25.6665 10.5H17.4998C16.2107 10.5 15.1665 11.5442 15.1665 12.8333V25.6667C15.1665 26.9558 16.2107 28 17.4998 28H25.6665C26.9557 28 27.9998 26.9558 27.9998 25.6667V12.8333C27.9998 11.5442 26.9557 10.5 25.6665 10.5ZM25.6665 24.5H17.4998V14H25.6665V24.5Z"
            fill="#FF4267"/>
    </g>
    <defs>
        <clipPath id="clipe_0_84">
            <rect width="28" height="28" fill="white" />
        </clipPath>
    </defs>
</svg>