<svg width="28" height="28" viewBox="0 0 28 28" fill="none" xmlns="http://www.w3.org/2000/svg">


    <path
        d="M21 @H7C6.07174 0 5.1815 0.368749 4.52513 1.02513C3.86875 1.6815 3.5 2.57174 3.5 3.5V24.5C3.5 25.4283 3.86875 26.3185 4.52513 26.9749C5.1815 27.6313 6.07174 28 7 28H21C21.9283 28 22.8185 27.6313 23.4749 26.9749C24.1313 26.3185 
24.5 25.4283 24.5 24.5V3.5C24.5 2.57174 24.1313 1.6815 23.4749 1.02513C22.8185 0.368749 21.9283 0 21 OVOZM22.1667 23.3333C22.1667 23.6428 22.0438 23.9395 21.825 24.1583C21.6062 24.3771 21.3094 24.5 21 24.5H7C6.69058 24.5 6.39383 24.3771 
6.17504 24.1583C5.95625 23.9395 5.83333 23.6428 5.83333 23.3333V4.66667C5.83333 4.35725 5.95625 4.0605 6.17504 3.84171C6.39383 3.62292 6.69058 3.5 7 3.5H21C21.3094 3.5 21.6062 3.62292 21.825 3.84171C22.0438 4.0605 22.1667 4.35725 22.1667 
4.66667V23.3333Z"
        fill="#FFAF2A" />


    <path
        d="M18.1368 14.679C17.3652 13.9602 16.444 13.4212 15.4395 13.1005L14.6601 12.803V9.06964C15.7589 9.16046 16.8377 9.4161 17.8603 9.82798L18.6081 7.95198C17.3529 7.43896 16.0156 7.156 14.6601 7.11664V5.41681H13.2998V7.13764C12.2152 
7.20152 11.1743 7.58696 10.3096 8.24481C9.95797 8.52195 9.67545 8.87695 9.48434 9.28185C9.29323 9.68676 9.19873 10.1305 9.2083 10.5781C9.18364 11.3872 9.45916 12.1767 9.9818 12.7948C10.6618 13.4994 11.5025 14.0287 12.4318 14.3371L13.294 
14.6556V18.4905C12.5805 18.4705 11.8716 18.3691 11.1811 18.1883C10.4705 18.0201 9.77955 17.7777 9.11963 17.465V19.6315C10.4442 20.1702 11.8642 20.4353 13.294 20.4108V22.5715H14.6566V20.3466C15.8007 20.2846 16.8974 19.8688 17.795

19.1566C18.1476 18.855 18.4286 18.4786 18.6177 18.0548C18.8068 17.6311 18.8991 17.1705 18.8881 16.7066C18.9067 15.9595 18.6378 15.2336 18.1368 14.679ZM13.2916 12.2966C12.804 12.1346 12.3554 11.8727 11.9745 11.5278C11.729 11.264 11.5978

10.9138 11.6093 10.5536C11.6066 10.3744 11.6438 10.1968 11.7183 10.0338C11.7927 9.87073 11.9026 9.7263 12.0398 9.61098C12.4005 9.32729 12.8349 9.1528 13.2916 9.10814V12.2966ZM14.6543 18.4041V15.1375C15.1592 15.2956 15.6303 15.546 16.0438

15.876C16.1797 15.9996 16.2872 16.1513 16.3589 16.3204C16.4306 16.4896 16.4648 16.6723 16.4591 16.856C16.4607 17.703 15.8591 18.219 14.6543 18.4041Z"
        fill="#FFAF2A" />


</svg>